<?xml version="1.0" standalone="no"?>
<!DOCTYPE svg PUBLIC "-//W3C//DTD SVG 20010904//EN"
 "http://www.w3.org/TR/2001/REC-SVG-20010904/DTD/svg10.dtd">
<svg version="1.0" xmlns="http://www.w3.org/2000/svg"
 width="138.000000pt" height="126.000000pt" viewBox="0 0 138.000000 126.000000"
 preserveAspectRatio="xMidYMid meet">

<g transform="translate(0.000000,126.000000) scale(0.100000,-0.100000)"
fill="#000000" stroke="none">
<path d="M197 1132 c-10 -10 -17 -25 -17 -34 0 -23 37 -51 59 -45 12 3 75 -19
156 -54 75 -33 140 -57 144 -54 5 2 19 30 31 61 19 47 21 57 9 65 -23 15 -29
11 -48 -30 l-17 -39 -115 49 c-71 31 -121 59 -132 74 -22 30 -48 32 -70 7z
m58 -32 c0 -18 -6 -26 -23 -28 -13 -2 -25 3 -28 12 -10 26 4 48 28 44 17 -2
23 -10 23 -28z"/>
<path d="M662 1134 c-16 -11 -22 -24 -21 -47 1 -20 -20 -84 -54 -166 -32 -74
-57 -136 -57 -138 0 -6 109 -53 124 -53 16 0 29 27 20 41 -3 5 -21 16 -40 24
-39 16 -41 3 25 154 22 52 50 100 61 108 27 19 26 58 -2 77 -28 20 -28 20 -56
0z m53 -39 c0 -22 -31 -33 -47 -17 -17 17 -1 44 24 40 15 -2 23 -10 23 -23z"/>
<path d="M380 1121 c-5 -11 -10 -22 -10 -25 0 -8 109 -56 126 -56 12 0 30 37
22 45 -4 4 -119 55 -124 55 -2 0 -8 -9 -14 -19z"/>
<path d="M247 993 c-18 -17 -5 -45 28 -59 19 -8 35 -17 35 -20 0 -22 -96 -232
-111 -242 -21 -15 -25 -62 -7 -80 33 -33 94 2 84 49 -4 20 10 65 49 158 30 72
55 135 55 141 0 17 -121 66 -133 53z m7 -349 c7 -19 -10 -44 -31 -44 -17 0
-27 24 -19 45 7 20 42 19 50 -1z"/>
<path d="M658 884 l-27 -65 22 -8 c19 -8 24 -4 40 33 37 83 38 85 17 96 -10 5
-20 10 -22 10 -2 0 -15 -30 -30 -66z"/>
<path d="M210 859 c-16 -43 -20 -63 -12 -71 19 -19 38 -1 61 58 17 45 19 59 9
66 -26 16 -36 7 -58 -53z"/>
<path d="M371 776 c-16 -19 -50 -113 -44 -120 17 -17 44 -3 58 30 11 28 19 35
32 30 103 -37 224 -94 229 -108 3 -10 17 -21 31 -24 20 -5 31 -2 45 16 23 28
23 35 -3 61 -13 13 -28 19 -42 15 -12 -3 -74 18 -158 53 -101 43 -141 56 -148
47z m344 -146 c0 -19 -6 -26 -24 -28 -29 -4 -43 15 -30 41 15 28 54 19 54 -13z"/>
<path d="M401 668 c-8 -21 -3 -26 48 -50 70 -33 75 -33 89 -4 10 23 8 25 -54
50 -35 14 -67 26 -69 26 -3 0 -10 -10 -14 -22z"/>
</g>
</svg>
