<?xml version="1.0" standalone="no"?>
<!DOCTYPE svg PUBLIC "-//W3C//DTD SVG 20010904//EN"
 "http://www.w3.org/TR/2001/REC-SVG-20010904/DTD/svg10.dtd">
<svg version="1.0" xmlns="http://www.w3.org/2000/svg"
 width="200.000000pt" height="200.000000pt" viewBox="0 0 200.000000 200.000000"
 preserveAspectRatio="xMidYMid meet">

<g transform="translate(0.000000,200.000000) scale(0.100000,-0.100000)"
fill="#000000" stroke="none">
<path d="M737 1602 c-10 -10 -17 -25 -17 -34 0 -23 37 -51 59 -45 12 3 75 -19
156 -54 75 -33 140 -57 144 -54 5 2 19 30 31 61 19 47 21 57 9 65 -23 15 -29
11 -48 -30 l-17 -39 -115 49 c-71 31 -121 59 -132 74 -22 30 -48 32 -70 7z
m58 -32 c0 -18 -6 -26 -23 -28 -24 -4 -38 18 -28 44 3 9 15 14 28 12 17 -2 23
-10 23 -28z"/>
<path d="M1202 1604 c-16 -11 -22 -24 -21 -47 1 -20 -20 -84 -54 -166 -32 -74
-57 -136 -57 -138 0 -6 109 -53 124 -53 16 0 29 27 20 41 -3 5 -21 16 -40 24
-39 16 -41 3 25 154 22 52 50 100 61 108 27 19 26 58 -2 77 -28 20 -28 20 -56
0z m53 -39 c0 -22 -31 -33 -47 -17 -17 17 -1 44 24 40 15 -2 23 -10 23 -23z"/>
<path d="M920 1591 c-5 -11 -10 -22 -10 -25 0 -8 109 -56 126 -56 12 0 30 37
22 45 -4 4 -119 55 -124 55 -2 0 -8 -9 -14 -19z"/>
<path d="M787 1463 c-18 -17 -5 -45 28 -59 19 -8 35 -17 35 -20 0 -22 -96
-232 -111 -242 -21 -15 -25 -62 -7 -80 33 -33 94 2 84 49 -4 20 10 65 49 158
30 72 55 135 55 141 0 17 -121 66 -133 53z m7 -349 c7 -19 -10 -44 -31 -44
-17 0 -27 24 -19 45 7 20 42 19 50 -1z"/>
<path d="M1198 1354 l-27 -65 22 -8 c19 -8 24 -4 40 33 37 83 38 85 17 96 -10
5 -20 10 -22 10 -2 0 -15 -30 -30 -66z"/>
<path d="M750 1329 c-16 -43 -20 -63 -12 -71 19 -19 38 -1 61 58 17 45 19 59
9 66 -26 16 -36 7 -58 -53z"/>
<path d="M911 1246 c-16 -19 -50 -113 -44 -120 17 -17 44 -3 58 30 11 28 19
35 32 30 103 -37 224 -94 229 -108 3 -10 17 -21 31 -24 20 -5 31 -2 45 16 23
28 23 35 -3 61 -13 13 -28 19 -42 15 -12 -3 -74 18 -158 53 -101 43 -141 56
-148 47z m344 -146 c0 -19 -6 -26 -24 -28 -29 -4 -43 15 -30 41 15 28 54 19
54 -13z"/>
<path d="M941 1138 c-8 -21 -3 -26 48 -50 70 -33 75 -33 89 -4 10 23 8 25 -54
50 -35 14 -67 26 -69 26 -3 0 -10 -10 -14 -22z"/>
<path d="M480 904 c0 -21 4 -25 23 -22 14 2 23 11 25 26 3 18 -1 22 -22 22
-21 0 -26 -5 -26 -26z"/>
<path d="M760 904 c0 -21 4 -25 23 -22 14 2 23 11 25 26 3 18 -1 22 -22 22
-21 0 -26 -5 -26 -26z"/>
<path d="M194 907 c-2 -7 -3 -58 -2 -113 l3 -99 28 -3 27 -3 0 68 0 68 25 -38
c33 -47 57 -47 89 0 l25 36 3 -64 c3 -61 4 -64 28 -64 l25 0 0 110 c0 105 -1
110 -22 113 -16 2 -31 -9 -59 -47 -21 -28 -41 -51 -44 -51 -3 0 -23 23 -43 50
-37 49 -72 65 -83 37z"/>
<path d="M1390 880 c0 -20 -5 -30 -15 -30 -9 0 -15 -9 -15 -25 0 -16 6 -25 15
-25 11 0 15 -11 15 -38 0 -48 17 -70 55 -74 25 -2 31 1 33 20 3 17 -2 25 -17
29 -15 4 -21 13 -21 34 0 24 4 29 25 29 20 0 25 5 25 25 0 20 -5 25 -25 25
-21 0 -25 5 -25 30 0 25 -4 30 -25 30 -21 0 -25 -5 -25 -30z"/>
<path d="M1074 846 c-54 -24 -67 -107 -23 -143 41 -32 129 -27 129 7 0 17 -7
20 -44 20 -25 0 -48 5 -51 10 -4 6 11 10 37 10 66 0 88 34 51 78 -24 28 -61
35 -99 18z m64 -53 c2 -9 -7 -13 -28 -13 -28 0 -31 2 -20 15 15 18 41 16 48
-2z"/>
<path d="M1243 850 c-18 -7 -23 -17 -23 -45 0 -32 4 -38 43 -56 l42 -19 -41 5
c-32 4 -43 1 -48 -11 -9 -23 0 -32 39 -40 50 -9 90 13 90 51 0 29 -13 40 -70
61 -16 6 -12 9 19 13 47 7 58 27 21 41 -31 12 -42 12 -72 0z"/>
<path d="M1564 850 c-12 -5 -29 -19 -38 -32 -51 -72 33 -165 112 -124 33 17
42 34 42 79 -1 36 -15 58 -47 75 -25 14 -40 14 -69 2z m61 -80 c0 -30 -35 -40
-55 -15 -10 12 -10 18 0 30 20 25 55 15 55 -15z"/>
<path d="M480 771 c0 -79 7 -94 38 -84 8 3 12 29 12 84 0 78 0 79 -25 79 -25
0 -25 -1 -25 -79z"/>
<path d="M560 769 c0 -78 0 -79 25 -79 23 0 25 4 25 44 0 83 57 91 62 9 3 -44
5 -48 28 -48 24 0 25 3 25 57 -1 80 -18 97 -101 96 l-64 0 0 -79z"/>
<path d="M760 771 c0 -79 7 -94 38 -84 8 3 12 29 12 84 0 78 0 79 -25 79 -25
0 -25 -1 -25 -79z"/>
<path d="M867 837 c-62 -47 -21 -158 53 -144 33 7 39 -3 15 -23 -12 -10 -22
-10 -39 -2 -17 7 -27 7 -35 -1 -18 -18 -13 -33 14 -45 32 -15 48 -15 78 -1 36
16 47 50 47 144 l0 83 -59 1 c-32 0 -66 -5 -74 -12z m71 -61 c5 -24 -10 -38
-31 -30 -17 6 -23 35 -10 48 12 12 38 1 41 -18z"/>
<path d="M1710 770 c0 -56 4 -79 13 -83 25 -9 36 8 39 58 3 48 4 50 35 53 30
3 49 24 38 42 -3 5 -32 9 -65 9 l-60 -1 0 -78z"/>
</g>
</svg>
